<svg fill="none" height="100%" width="100%" viewBox="0 0 1000 1000" xmlns:xlink="http://www.w3.org/1999/xlink" xmlns="http://www.w3.org/2000/svg"><g transform="matrix(1,0,0,1,500,500)" id="i0"><ellipse ry="459.5" rx="459.5" cy="0" cx="0" stroke-width="1" stroke="#e1e1e1" fill="#000000" fill-opacity="0.03" /></g><g transform="matrix(1,0,0,1,500,500)" id="i1"><ellipse ry="349" rx="349" cy="0" cx="0" stroke-width="1" stroke="#e1e1e1" fill="#000000" fill-opacity="0.03" /></g><g transform="matrix(1,0,0,1,500,500)" id="i2"><ellipse ry="310" rx="310" cy="0" cx="0" stroke-width="1" stroke="#e1e1e1" fill="#000000" fill-opacity="0.03" /></g><g transform="matrix(1,0,0,1,500,500)" id="i3"><ellipse ry="266.5" rx="266.5" cy="0" cx="0" stroke-width="1" stroke="#e1e1e1" fill="#000000" fill-opacity="0.03" /></g><g transform="matrix(1,0,0,1,500,500)" id="i4"><ellipse ry="226.5" rx="226.5" cy="0" cx="0" stroke-width="1" stroke="#e1e1e1" fill="#000000" fill-opacity="0.03" /></g><g transform="matrix(1,0,0,1,500,500)" id="i5"><ellipse ry="194" rx="194" cy="0" cx="0" stroke-width="1" stroke="#e1e1e1" fill="#000000" fill-opacity="0.03" /></g><g transform="matrix(1,0,0,1,500,500)" id="i6"><ellipse ry="151.5" rx="151.5" cy="0" cx="0" stroke-width="1" stroke="#e1e1e1" fill="#000000" fill-opacity="0.03" /></g><g transform="matrix(1,0,0,1,500,500)" id="i7"><ellipse ry="25" rx="25" cy="0" cx="0" stroke-width="1" stroke="#e1e1e1" fill="#ffffff" /></g><g id="i8"><g transform="translate(500,500)"><g transform="rotate(-8)"><animateTransform repeatCount="indefinite" type="rotate" attributeName="transform" dur="5s" begin="0s" calcMode="spline" values="-8; 482; 482" keyTimes="0; 0.996667; 1" keySplines="0 0 1 1; 0 0 1 1" fill="freeze" /><g transform="scale(1,1) translate(0,0)"><ellipse ry="7.5" rx="7.5" cy="0" cx="-150" stroke-width="1" stroke="#e1e1e1" fill="#ffffff" /></g></g></g></g><g id="i9"><g transform="translate(500,500)"><g transform="rotate(243)"><animateTransform repeatCount="indefinite" type="rotate" attributeName="transform" dur="5s" begin="0s" calcMode="spline" values="243; 560; 560" keyTimes="0; 0.996667; 1" keySplines="0 0 1 1; 0 0 1 1" fill="freeze" /><g transform="scale(1,1) translate(0,0)"><ellipse ry="9" rx="9" cy="0" cx="-193" stroke-width="1" stroke="#e1e1e1" fill="#ffffff" /></g></g></g></g><g id="i10"><g transform="translate(500,500)"><g transform="rotate(82)"><animateTransform repeatCount="indefinite" type="rotate" attributeName="transform" dur="5s" begin="0s" calcMode="spline" values="82; 331; 331" keyTimes="0; 0.996667; 1" keySplines="0 0 1 1; 0 0 1 1" fill="freeze" /><g transform="scale(1,1) translate(0,0)"><ellipse ry="6" rx="6" cy="0" cx="-226" stroke-width="1" stroke="#e1e1e1" fill="#ffffff" /></g></g></g></g><g id="i11"><g transform="translate(500,500)"><g transform="rotate(-165)"><animateTransform repeatCount="indefinite" type="rotate" attributeName="transform" dur="5s" begin="0s" calcMode="spline" values="-165; 376; 376" keyTimes="0; 0.996667; 1" keySplines="0 0 1 1; 0 0 1 1" fill="freeze" /><g transform="scale(1,1) translate(0,0)"><ellipse ry="14" rx="14" cy="0" cx="-265" stroke-width="1" stroke="#e1e1e1" fill="#ffffff" /></g></g></g></g><g id="i12"><g transform="translate(500,500)"><g transform="rotate(82)"><animateTransform repeatCount="indefinite" type="rotate" attributeName="transform" dur="5s" begin="0s" calcMode="spline" values="82; 295; 295" keyTimes="0; 0.996667; 1" keySplines="0 0 1 1; 0 0 1 1" fill="freeze" /><g transform="scale(1,1) translate(0,0)"><ellipse ry="10.5" rx="10.5" cy="0" cx="-310" stroke-width="1" stroke="#e1e1e1" fill="#ffffff" /></g></g></g></g><g id="i13"><g transform="translate(500,500)"><g transform="rotate(-80)"><animateTransform repeatCount="indefinite" type="rotate" attributeName="transform" dur="5s" begin="0s" calcMode="spline" values="-80; 135; 135" keyTimes="0; 0.996667; 1" keySplines="0 0 1 1; 0 0 1 1" fill="freeze" /><g transform="scale(1,1) translate(0,0)"><ellipse ry="16.5" rx="16.5" cy="0" cx="-349" stroke-width="1" stroke="#e1e1e1" fill="#ffffff" /></g></g></g></g><g id="i14"><g transform="translate(500,500)"><g transform="rotate(133)"><animateTransform repeatCount="indefinite" type="rotate" attributeName="transform" dur="5s" begin="0s" calcMode="spline" values="133; 437; 437" keyTimes="0; 0.996667; 1" keySplines="0 0 1 1; 0 0 1 1" fill="freeze" /><g transform="scale(1,1) translate(0,0)"><ellipse ry="9" rx="9" cy="0" cx="-459" stroke-width="1" stroke="#e1e1e1" fill="#ffffff" /></g></g></g></g></svg>