<svg xmlns="http://www.w3.org/2000/svg" xmlns:xlink="http://www.w3.org/1999/xlink" width="403" zoomAndPan="magnify" viewBox="0 0 302.25 302.249993" height="403" preserveAspectRatio="xMidYMid meet" version="1.0"><defs><clipPath id="e497ce5d9a"><path d="M 194 54 L 284 54 L 284 295 L 194 295 Z M 194 54 " clip-rule="nonzero"/></clipPath><clipPath id="3663242b4e"><path d="M 212.765625 48.292969 L 301.019531 61.535156 L 265.015625 301.476562 L 176.761719 288.234375 Z M 212.765625 48.292969 " clip-rule="nonzero"/></clipPath><clipPath id="30cc3e2ced"><path d="M 256.890625 54.914062 L 283.035156 181.394531 L 220.921875 294.628906 L 194.78125 168.152344 Z M 256.890625 54.914062 " clip-rule="nonzero"/></clipPath><clipPath id="633befd5a2"><path d="M 0.636719 0.824219 L 89.21875 0.824219 L 89.21875 240.707031 L 0.636719 240.707031 Z M 0.636719 0.824219 " clip-rule="nonzero"/></clipPath><clipPath id="bddc7272f9"><path d="M 18.765625 -5.707031 L 107.019531 7.535156 L 71.015625 247.476562 L -17.238281 234.234375 Z M 18.765625 -5.707031 " clip-rule="nonzero"/></clipPath><clipPath id="048e9b1092"><path d="M 62.890625 0.914062 L 89.035156 127.394531 L 26.921875 240.628906 L 0.78125 114.152344 Z M 62.890625 0.914062 " clip-rule="nonzero"/></clipPath><clipPath id="c95077f90a"><rect x="0" width="90" y="0" height="241"/></clipPath><clipPath id="1817c4ca27"><path d="M 0 1 L 243 1 L 243 91 L 0 91 Z M 0 1 " clip-rule="nonzero"/></clipPath><clipPath id="6f27c5aa56"><path d="M 242.386719 0 L 243.175781 89.238281 L 0.558594 91.382812 L -0.226562 2.144531 Z M 242.386719 0 " clip-rule="nonzero"/></clipPath><clipPath id="fb7875630c"><path d="M 242.78125 44.621094 L 121.980469 90.308594 L 0.394531 46.761719 L 121.195312 1.070312 Z M 242.78125 44.621094 " clip-rule="nonzero"/></clipPath><clipPath id="143091d859"><path d="M 0.238281 0 L 242.996094 0 L 242.996094 89.496094 L 0.238281 89.496094 Z M 0.238281 0 " clip-rule="nonzero"/></clipPath><clipPath id="3f35bc5fbc"><path d="M 242.386719 -1 L 243.175781 88.238281 L 0.558594 90.382812 L -0.226562 1.144531 Z M 242.386719 -1 " clip-rule="nonzero"/></clipPath><clipPath id="5417138b8d"><path d="M 242.78125 43.621094 L 121.980469 89.308594 L 0.394531 45.761719 L 121.195312 0.0703125 Z M 242.78125 43.621094 " clip-rule="nonzero"/></clipPath><clipPath id="acdb51e3d1"><rect x="0" width="243" y="0" height="90"/></clipPath><clipPath id="2f4330318b"><path d="M 65 51 L 250 51 L 250 210 L 65 210 Z M 65 51 " clip-rule="nonzero"/></clipPath><clipPath id="605fe17618"><path d="M 219.933594 17.746094 L 278.167969 85.367188 L 94.324219 243.695312 L 36.085938 176.074219 Z M 219.933594 17.746094 " clip-rule="nonzero"/></clipPath><clipPath id="746e82d3b3"><path d="M 249.050781 51.554688 L 186.332031 164.457031 L 65.378906 209.734375 L 128.097656 96.835938 Z M 249.050781 51.554688 " clip-rule="nonzero"/></clipPath><clipPath id="b5a2b81619"><path d="M 0.359375 0.472656 L 184.222656 0.472656 L 184.222656 158.960938 L 0.359375 158.960938 Z M 0.359375 0.472656 " clip-rule="nonzero"/></clipPath><clipPath id="c90534f69d"><path d="M 154.933594 -33.253906 L 213.167969 34.367188 L 29.324219 192.695312 L -28.914062 125.074219 Z M 154.933594 -33.253906 " clip-rule="nonzero"/></clipPath><clipPath id="3c9f960cab"><path d="M 184.050781 0.554688 L 121.332031 113.457031 L 0.378906 158.734375 L 63.097656 45.835938 Z M 184.050781 0.554688 " clip-rule="nonzero"/></clipPath><clipPath id="f52b7328c7"><rect x="0" width="185" y="0" height="159"/></clipPath></defs><g clip-path="url(#e497ce5d9a)"><g clip-path="url(#3663242b4e)"><g clip-path="url(#30cc3e2ced)"><g transform="matrix(1, 0, 0, 1, 194, 54)"><g clip-path="url(#c95077f90a)"><g clip-path="url(#633befd5a2)"><g clip-path="url(#bddc7272f9)"><g clip-path="url(#048e9b1092)"><path fill="#ffe500" d="M 18.765625 -5.707031 L 107.019531 7.535156 L 71.066406 247.128906 L -17.1875 233.886719 Z M 18.765625 -5.707031 " fill-opacity="1" fill-rule="nonzero"/></g></g></g></g></g></g></g></g><g clip-path="url(#1817c4ca27)"><g clip-path="url(#6f27c5aa56)"><g clip-path="url(#fb7875630c)"><g transform="matrix(1, 0, 0, 1, 0, 1)"><g clip-path="url(#acdb51e3d1)"><g clip-path="url(#143091d859)"><g clip-path="url(#3f35bc5fbc)"><g clip-path="url(#5417138b8d)"><path fill="#ffe500" d="M 242.386719 -1 L 243.175781 88.238281 L 0.910156 90.378906 L 0.121094 1.140625 Z M 242.386719 -1 " fill-opacity="1" fill-rule="nonzero"/></g></g></g></g></g></g></g></g><g clip-path="url(#2f4330318b)"><g clip-path="url(#605fe17618)"><g clip-path="url(#746e82d3b3)"><g transform="matrix(1, 0, 0, 1, 65, 51)"><g clip-path="url(#f52b7328c7)"><g clip-path="url(#b5a2b81619)"><g clip-path="url(#c90534f69d)"><g clip-path="url(#3c9f960cab)"><path fill="#ffe500" d="M 154.933594 -33.253906 L 213.167969 34.367188 L 29.585938 192.46875 L -28.648438 124.84375 Z M 154.933594 -33.253906 " fill-opacity="1" fill-rule="nonzero"/></g></g></g></g></g></g></g></g></svg>